<svg width="32" height="32" viewBox="0 0 32 32" fill="none" xmlns="http://www.w3.org/2000/svg">
<rect width="32" height="32" fill="#131213"/>
<path d="M17.826 9.856H17.592C17.46 9.46 17.298 9.046 17.106 8.614C16.926 8.17 16.686 7.768 16.386 7.408C16.098 7.036 15.732 6.736 15.288 6.508C14.856 6.268 14.316 6.148 13.668 6.148C12.792 6.148 12.102 6.31 11.598 6.634C11.094 6.958 10.71 7.408 10.446 7.984C10.194 8.56 10.032 9.25 9.96 10.054C9.888 10.846 9.852 11.716 9.852 12.664C9.852 13.912 9.924 14.944 10.068 15.76C10.212 16.576 10.434 17.224 10.734 17.704C11.046 18.184 11.442 18.52 11.922 18.712C12.414 18.904 12.996 19 13.668 19C14.208 19 14.694 18.892 15.126 18.676C15.57 18.46 15.96 18.178 16.296 17.83C16.632 17.47 16.914 17.062 17.142 16.606C17.37 16.15 17.538 15.676 17.646 15.184H17.934V19H17.646C17.586 18.856 17.514 18.76 17.43 18.712C17.346 18.652 17.22 18.622 17.052 18.622C16.908 18.622 16.722 18.658 16.494 18.73C16.266 18.79 16.002 18.862 15.702 18.946C15.414 19.018 15.096 19.084 14.748 19.144C14.4 19.216 14.034 19.252 13.65 19.252C12.774 19.252 11.928 19.084 11.112 18.748C10.296 18.4 9.576 17.932 8.952 17.344C8.34 16.744 7.848 16.042 7.476 15.238C7.104 14.434 6.918 13.564 6.918 12.628C6.918 11.608 7.122 10.684 7.53 9.856C7.95 9.028 8.484 8.32 9.132 7.732C9.78 7.144 10.5 6.694 11.292 6.382C12.096 6.058 12.882 5.896 13.65 5.896C14.034 5.896 14.388 5.932 14.712 6.004C15.048 6.076 15.354 6.154 15.63 6.238C15.918 6.31 16.176 6.382 16.404 6.454C16.632 6.526 16.824 6.562 16.98 6.562C17.148 6.562 17.274 6.544 17.358 6.508C17.442 6.46 17.502 6.352 17.538 6.184H17.826V9.856Z" fill="#FEFCF6"/>
<path d="M23.826 16.856H23.592C23.46 16.46 23.298 16.046 23.106 15.614C22.926 15.17 22.686 14.768 22.386 14.408C22.098 14.036 21.732 13.736 21.288 13.508C20.856 13.268 20.316 13.148 19.668 13.148C18.792 13.148 18.102 13.31 17.598 13.634C17.094 13.958 16.71 14.408 16.446 14.984C16.194 15.56 16.032 16.25 15.96 17.054C15.888 17.846 15.852 18.716 15.852 19.664C15.852 20.912 15.924 21.944 16.068 22.76C16.212 23.576 16.434 24.224 16.734 24.704C17.046 25.184 17.442 25.52 17.922 25.712C18.414 25.904 18.996 26 19.668 26C20.208 26 20.694 25.892 21.126 25.676C21.57 25.46 21.96 25.178 22.296 24.83C22.632 24.47 22.914 24.062 23.142 23.606C23.37 23.15 23.538 22.676 23.646 22.184H23.934V26H23.646C23.586 25.856 23.514 25.76 23.43 25.712C23.346 25.652 23.22 25.622 23.052 25.622C22.908 25.622 22.722 25.658 22.494 25.73C22.266 25.79 22.002 25.862 21.702 25.946C21.414 26.018 21.096 26.084 20.748 26.144C20.4 26.216 20.034 26.252 19.65 26.252C18.774 26.252 17.928 26.084 17.112 25.748C16.296 25.4 15.576 24.932 14.952 24.344C14.34 23.744 13.848 23.042 13.476 22.238C13.104 21.434 12.918 20.564 12.918 19.628C12.918 18.608 13.122 17.684 13.53 16.856C13.95 16.028 14.484 15.32 15.132 14.732C15.78 14.144 16.5 13.694 17.292 13.382C18.096 13.058 18.882 12.896 19.65 12.896C20.034 12.896 20.388 12.932 20.712 13.004C21.048 13.076 21.354 13.154 21.63 13.238C21.918 13.31 22.176 13.382 22.404 13.454C22.632 13.526 22.824 13.562 22.98 13.562C23.148 13.562 23.274 13.544 23.358 13.508C23.442 13.46 23.502 13.352 23.538 13.184H23.826V16.856Z" fill="#FEFCF6"/>
</svg>
